{
	"asset":{
		"generator":"Khronos glTF Blender I/O v4.2.70",
		"version":"2.0"
	},
	"scene":0,
	"scenes":[
		{
			"name":"Scene",
			"nodes":[
				3,
				4
			]
		}
	],
	"nodes":[
		{
			"mesh":0,
			"name":"David head by 1D_0",
			"translation":[
				0,
				0,
				-3.939531325158896e-06
			]
		},
		{
			"children":[
				0
			],
			"name":"David head by 1D",
			"translation":[
				-0.24122999608516693,
				-29.320980072021484,
				97.60269165039062
			]
		},
		{
			"children":[
				1
			],
			"name":"Root"
		},
		{
			"children":[
				2
			],
			"name":"Sketchfab_model",
			"rotation":[
				-0.70710688829422,
				0,
				0,
				0.7071066498756409
			]
		},
		{
			"mesh":1,
			"name":"Cube"
		}
	],
	"materials":[
		{
			"doubleSided":true,
			"name":"Scene_-_Root",
			"pbrMetallicRoughness":{
				"baseColorFactor":[
					0.5397774577140808,
					0.5397774577140808,
					0.5397774577140808,
					1
				],
				"metallicFactor":0,
				"roughnessFactor":0.18110236525535583
			}
		},
		{
			"doubleSided":true,
			"name":"Material",
			"pbrMetallicRoughness":{
				"baseColorFactor":[
					0.800000011920929,
					0.800000011920929,
					0.800000011920929,
					1
				],
				"metallicFactor":0,
				"roughnessFactor":0.5
			}
		}
	],
	"meshes":[
		{
			"name":"David head by 1D_0",
			"primitives":[
				{
					"attributes":{
						"POSITION":0,
						"NORMAL":1,
						"TEXCOORD_0":2
					},
					"indices":3,
					"material":0
				}
			]
		},
		{
			"name":"Cube",
			"primitives":[
				{
					"attributes":{
						"POSITION":4,
						"NORMAL":5,
						"TEXCOORD_0":6
					},
					"indices":7,
					"material":1
				}
			]
		}
	],
	"accessors":[
		{
			"bufferView":0,
			"componentType":5126,
			"count":24011,
			"max":[
				72.03296661376953,
				120.36872863769531,
				99.9263916015625
			],
			"min":[
				-58.47863006591797,
				-30.07625961303711,
				-97.18975067138672
			],
			"type":"VEC3"
		},
		{
			"bufferView":1,
			"componentType":5126,
			"count":24011,
			"type":"VEC3"
		},
		{
			"bufferView":2,
			"componentType":5126,
			"count":24011,
			"type":"VEC2"
		},
		{
			"bufferView":3,
			"componentType":5123,
			"count":139992,
			"type":"SCALAR"
		},
		{
			"bufferView":4,
			"componentType":5126,
			"count":24,
			"max":[
				1,
				1,
				1
			],
			"min":[
				-1,
				-1,
				-1
			],
			"type":"VEC3"
		},
		{
			"bufferView":5,
			"componentType":5126,
			"count":24,
			"type":"VEC3"
		},
		{
			"bufferView":6,
			"componentType":5126,
			"count":24,
			"type":"VEC2"
		},
		{
			"bufferView":7,
			"componentType":5123,
			"count":36,
			"type":"SCALAR"
		}
	],
	"bufferViews":[
		{
			"buffer":0,
			"byteLength":288132,
			"byteOffset":0,
			"target":34962
		},
		{
			"buffer":0,
			"byteLength":288132,
			"byteOffset":288132,
			"target":34962
		},
		{
			"buffer":0,
			"byteLength":192088,
			"byteOffset":576264,
			"target":34962
		},
		{
			"buffer":0,
			"byteLength":279984,
			"byteOffset":768352,
			"target":34963
		},
		{
			"buffer":0,
			"byteLength":288,
			"byteOffset":1048336,
			"target":34962
		},
		{
			"buffer":0,
			"byteLength":288,
			"byteOffset":1048624,
			"target":34962
		},
		{
			"buffer":0,
			"byteLength":192,
			"byteOffset":1048912,
			"target":34962
		},
		{
			"buffer":0,
			"byteLength":72,
			"byteOffset":1049104,
			"target":34963
		}
	],
	"buffers":[
		{
			"byteLength":1049176,
			"uri":"david.gl.bin"
		}
	]
}
